<svg width="620" height="659" viewBox="0 0 620 659" fill="none" xmlns="http://www.w3.org/2000/svg">
<path d="M391.127 454.873L452.587 464.47L612 571.962L318.143 596.915L179.857 654.5L161.323 547.008H141.444L7 441.436L140.303 425.098L126.079 342.607L72.3016 364.657L123.5 306L133.762 310.058L141.444 303.233L162.571 326.267L189.14 418.403L210.587 416.483L250.5 435.5L287.413 387.691L341.19 426.081L400.73 201.5L391.127 454.873Z" fill="white"/>
<path d="M391.127 454.873L452.587 464.47L612 571.962L318.143 596.915M391.127 454.873L199.063 571.962M391.127 454.873L400.73 201.5L341.19 426.081M391.127 454.873L341.19 426.081M318.143 596.915L199.063 571.962M318.143 596.915L179.857 654.5M199.063 571.962L179.857 654.5M179.857 654.5V571.962L215.709 510.538M179.857 654.5L139.5 337L126.079 342.607M179.857 654.5L161.323 547.008M341.19 426.081L287.413 387.691M287.413 387.691L215.709 510.538M287.413 387.691L250.5 435.5M287.413 387.691V0M215.709 510.538L209.786 490L250.5 435.5M215.709 510.538L189.14 418.403M72.3016 364.657L126.079 342.607M72.3016 364.657L133.762 310.058M72.3016 364.657L123.5 306L133.762 310.058M126.079 342.607L140.303 425.098M250.5 435.5L210.587 416.483L189.14 418.403M161.323 547.008H141.444L7 441.436L140.303 425.098M161.323 547.008L140.303 425.098M133.762 310.058L141.444 303.233L162.571 326.267L189.14 418.403" stroke="black" stroke-width="5"/>
</svg>
