<svg width="226" height="51" viewBox="0 0 226 51" fill="none" xmlns="http://www.w3.org/2000/svg">
<path d="M170.5 20.5L225 41.5L144.25 39.75L133 44.5L125 39.3328L119.5 48.5L111.5 39.0402L105.5 48.5L97.4143 39.75L84 48.5L81 38.3793L63.5 38L12.5 39.3328L34 33.25L1 28.5L68 15L74.5 10L84 11.5957L91.5 4.5L105.5 10L114 2L119.5 10L129 4.5L133 11.5957L144.25 10L151.75 17.75L158.5 13.5L162.5 20.5H170.5Z" fill="white"/>
<path d="M63.5 38L68 15M63.5 38L81 38.3793M63.5 38L12.5 39.3328L34 33.25M63.5 38L34 33.25M162.5 20.5H170.5L225 41.5L144.25 39.75M162.5 20.5L144.25 39.75M162.5 20.5L151.75 17.75M162.5 20.5L158.5 13.5L151.75 17.75M144.25 39.75L125 39.3328M144.25 39.75L133 44.5L125 39.3328M141 15L125 39.3328M141 15L151.75 17.75M141 15L119.5 10M125 39.3328L111.5 39.0402M125 39.3328L119.5 48.5L111.5 39.0402M111.5 39.0402L91.5 10M111.5 39.0402L98.5 38.7585M111.5 39.0402L105.5 48.5L97.4143 39.75M91.5 10L84 11.5957M91.5 10H105.5M68 15L98.5 38.7585M68 15L1 28.5L34 33.25M68 15L74.5 10L84 11.5957M68 15L84 11.5957M98.5 38.7585L81 38.3793M98.5 38.7585L97.4143 39.75M84 11.5957L91.5 4.5L105.5 10M105.5 10L114 2L119.5 10M105.5 10H119.5M119.5 10L129 4.5L133 11.5957L144.25 10L151.75 17.75M81 38.3793L84 48.5L97.4143 39.75" stroke="black" stroke-width="2"/>
</svg>
