<svg width="95" height="131" viewBox="0 0 95 131" fill="none" xmlns="http://www.w3.org/2000/svg">
<path d="M3 66L17.5 50.5H27.5L17.5 34.5L3 42L15.5 21.5L29 26V14.5L39.25 3L41 29L37.5 50.5L53.5 63.5L73 82.1522L93 79L88 96.5L81 116L66.5 128H41L53.5 121L45.5 116H39.25L29 128L27 122L21 128L26 101.5H21L23 79L3 66Z" fill="white"/>
<path d="M37.5 50.5L53.5 63.5M37.5 50.5H32.5M37.5 50.5L41 29L39.25 3L29 14.5V26M53.5 63.5L23 79M53.5 63.5L73 82.1522M23 79L3 66L17.5 50.5H27.5M23 79L21 101.5H26M88 96.5L93 79L73 82.1522M88 96.5L73 82.1522M88 96.5L81 116M88 96.5L26 101.5M81 116L66.5 128M81 116H45.5M66.5 128H41L53.5 121M66.5 128L53.5 121M53.5 121L45.5 116M45.5 116H39.25M33 116L26 101.5M33 116L27 122M33 116H39.25M26 101.5L21 128L27 122M27 122L29 128L39.25 116M27.5 50.5L17.5 34.5M27.5 50.5H32.5M17.5 34.5L3 42L15.5 21.5L29 26M17.5 34.5L29 26M29 26L32.5 50.5" stroke="black" stroke-width="2"/>
</svg>
