<svg width="98" height="115" viewBox="0 0 98 115" fill="none" xmlns="http://www.w3.org/2000/svg">
<path d="M21.5 48L3 26L12.25 16L3 2L21.5 6H50.5L62.5 2L58.5 16L66.5 26L54.8636 42L70 48L75.25 65L83.125 59.25L79.2647 39L95 32.5L85.1324 46.25L91 53.5L79.2647 78L80.5 82L73.8571 97.5L70 106.5H58.5L66.5 97.5L62.5 93.75H50.5V114L36 82L21.5 114V73.5V48Z" fill="white"/>
<path d="M21.5 48L3 26L12.25 16M21.5 48H50.5M21.5 48V73.5M50.5 48V73.5M50.5 48L54.8636 42M50.5 6H21.5M50.5 6L62.5 2L58.5 16M50.5 6L58.5 16M21.5 6L12.25 16M21.5 6L3 2L12.25 16M58.5 16L66.5 26L54.8636 42M36 82L21.5 114V73.5M36 82L50.5 114V93.75M36 82L50.5 73.5M36 82L21.5 73.5M50.5 73.5V93.75M50.5 93.75L70 48M50.5 93.75H62.5L66.5 97.5M70 48L75.25 65M70 48L54.8636 42M66.5 97.5L58.5 106.5H70L73.8571 97.5M66.5 97.5H73.8571M73.8571 97.5L80.5 82L79.2647 78M75.25 65L79.2647 78M75.25 65L83.125 59.25M91 53.5L79.2647 78M91 53.5L83.125 59.25M91 53.5L85.1324 46.25M83.125 59.25L79.2647 39M79.2647 39L95 32.5L85.1324 46.25M79.2647 39L85.1324 46.25" stroke="black" stroke-width="2"/>
</svg>
