<svg width="173" height="70" viewBox="0 0 173 70" fill="none" xmlns="http://www.w3.org/2000/svg">
<path d="M2 63.5L13.5 53L21.5 38.5L52.5 23.5L70 3V24.5L146.5 33.5L169.5 15L157 38.5L172.5 45.5H140L80.5341 57L86.5 67.5L61.5 60.5L13.5 67.5L2 63.5Z" fill="white"/>
<path d="M13.5 53L2 63.5L13.5 67.5M13.5 53V67.5M13.5 53L21.5 38.5L52.5 23.5M13.5 67.5L61.5 60.5M61.5 60.5L86.5 67.5L80.5341 57M61.5 60.5V23.5M61.5 23.5H52.5M61.5 23.5L80.5341 57M61.5 23.5L70 24.5M52.5 23.5L70 3V24.5M146.5 33.5L169.5 15L157 38.5M146.5 33.5L70 24.5M146.5 33.5L157 38.5M157 38.5L172.5 45.5H140M157 38.5L140 45.5M140 45.5L80.5341 57" stroke="black" stroke-width="2"/>
</svg>
