<svg width="155" height="134" viewBox="0 0 155 134" fill="none" xmlns="http://www.w3.org/2000/svg">
<path d="M1 94.5L18.5 87L12.5 62L33.5 28L74.5 2L108 24L101.833 42.5H124.5L154 59V87L147.5 128H129.5V112.75L114.5 104.946L60 132V118.5H47L51 62H31.75L28.5 84L24 94.5H1Z" fill="white"/>
<path d="M18.5 87L1 94.5H24M18.5 87L12.5 62M18.5 87L24 94.5M12.5 62L33.5 28L74.5 2L108 24L101.833 42.5M12.5 62H31.75M98.5 52.5L51 62M98.5 52.5L60 132M98.5 52.5L101.833 42.5M51 62H31.75M51 62L47 118.5H60M51 62L60 118.5M31.75 62L28.5 84L24 94.5M60 118.5V132M60 132L114.5 104.946M129.5 97.5L154 87M129.5 97.5L114.5 104.946M129.5 97.5V112.75M129.5 97.5L124.5 42.5M129.5 97.5L154 59M154 87L147.5 128H129.5V112.75M154 87V59M114.5 104.946L129.5 112.75M101.833 42.5H124.5M124.5 42.5L154 59" stroke="black" stroke-width="2"/>
</svg>
