<svg width="118" height="130" viewBox="0 0 118 130" fill="none" xmlns="http://www.w3.org/2000/svg">
<path d="M27.5 2L51 11L70.5 52H76.5V45.5H100.5L116.5 64L114.5 91.5H110.5L104 102.5L108.5 108.5L100.52 119L99 121L72.5 119L87 106.5L64 104L78 91.5L52 90.5L41.5 98L37.5 115.5H47.5L32.5 128L2 110.5L10.7692 91.5L3.5 88.5L28 39.5H18.5L5.5 18.5L18.5 8.75L24.1667 4.5L27.5 2Z" fill="white"/>
<path d="M51 11L27.5 2L24.1667 4.5M51 11L70.5 52H76.5M51 11L52 90.5M76.5 52V45.5H100.5M76.5 52L77.6013 81M100.5 45.5L116.5 64M100.5 45.5L77.6013 81M116.5 64L114.5 91.5H110.5M116.5 64L77.8006 86.25M110.5 91.5L104 102.5M110.5 91.5L77.9003 88.875M104 102.5L108.5 108.5L100.52 119M104 102.5L77.9003 88.875M87 106.5L72.5 119L99 121L100.52 119M87 106.5L64 104L78 91.5M87 106.5L78 91.5M87 106.5L100.52 119M78 91.5L52 90.5M78 91.5L77.9003 88.875M52 90.5L41.5 98M52 90.5L29 52M41.5 98L37.5 115.5H47.5L32.5 128L2 110.5M41.5 98L2 110.5M2 110.5L10.7692 91.5M29 52L32.5 39.5M29 52L10.7692 91.5M32.5 39.5L41.5 25.5L24.1667 4.5M32.5 39.5H28M18.5 39.5L5.5 18.5L18.5 8.75M18.5 39.5V8.75M18.5 39.5H28M18.5 8.75L24.1667 4.5M10.7692 91.5L3.5 88.5L28 39.5M77.6013 81L77.8006 86.25M77.8006 86.25L77.9003 88.875" stroke="black" stroke-width="2"/>
</svg>
