<svg width="119" height="165" viewBox="0 0 119 165" fill="none" xmlns="http://www.w3.org/2000/svg">
<path d="M2 39.5L12 22.5H30.5L49.0773 39.5L99.5 3L94.5 15.6744L115.5 7.5L80 58.8939L94.5 69L115.5 124L86 162L65.5 87.5H30.5L16.1269 37L2 39.5Z" fill="white"/>
<path d="M12 22.5L2 39.5L16.1269 37M12 22.5L16.1269 37M12 22.5H30.5L49.0773 39.5M30.5 87.5L16.1269 37M30.5 87.5H65.5M30.5 87.5L32.5 51.5M65.5 87.5L86 162L115.5 124L94.5 69M65.5 87.5L94.5 69M65.5 87.5L78 57.5M65.5 87.5L32.5 51.5M94.5 69L80 58.8939M78 57.5L94.5 15.6744M78 57.5L80 58.8939M32.5 51.5L49.0773 39.5M94.5 15.6744L99.5 3L49.0773 39.5M94.5 15.6744L115.5 7.5L80 58.8939" stroke="black" stroke-width="2"/>
</svg>
