<svg width="123" height="143" viewBox="0 0 123 143" fill="none" xmlns="http://www.w3.org/2000/svg">
<path d="M3 57L22.5 48.5V92H42L89.5 2L105.75 17L122 32V63V92L89.5 118.5H56.5V141.5H49H34.5L41.5 137L38.5 118.5L26.5 108L3 92L17 61L3 57Z" fill="white"/>
<path d="M42 92H22.5V48.5L3 57L17 61L3 92L26.5 108M42 92L89.5 2L105.75 17M42 92L26.5 108M42 92L56.5 118.5M42 92L89.5 118.5M42 92H122M42 92L122 63M42 92L122 32M42 92L105.75 17M122 32V63M122 32L105.75 17M122 92L89.5 118.5M122 92V63M89.5 118.5H56.5M38.5 118.5L26.5 108M38.5 118.5L41.5 137L34.5 141.5H49M38.5 118.5H56.5M56.5 118.5V141.5H49M56.5 118.5L49 141.5" stroke="black" stroke-width="2"/>
</svg>
