<svg width="84" height="117" viewBox="0 0 84 117" fill="none" xmlns="http://www.w3.org/2000/svg">
<path d="M14 23.5L1 28.5L13.25 19.25L12.5 15L29 2L59 15L82 67.5L65 92.5L69 103.5H60.5L54 114H38.5L31 115.5L31.8298 97.5L29 90.5V23.5H14Z" fill="white"/>
<path d="M14 23.5L1 28.5L13.25 19.25M14 23.5H29M14 23.5L13.25 19.25M59 15L29 2L12.5 15L13.25 19.25M59 15L82 67.5L65 92.5M59 15L40 20.3833M29 23.5V90.5L31.8298 97.5M29 23.5L40 20.3833M38.5 114L31 115.5L31.8298 97.5M38.5 114L31.8298 97.5M38.5 114H54L60.5 103.5M60.5 103.5H69L65 92.5M60.5 103.5L54 97.5L40 42V31.1917M65 92.5L40 31.1917M40 20.3833V31.1917" stroke="black" stroke-width="2"/>
</svg>
