<svg width="144" height="78" viewBox="0 0 144 78" fill="none" xmlns="http://www.w3.org/2000/svg">
<path d="M8.5 54L1 30L16.75 46.25L27 38.6069L23 30H38.5426L60 14L67.5 1H84.5L84.9111 5.5H122.5L140 16.5L142.5 33V70H132.5L129 56.3529L122.5 46L90.5 66.6765L84.5 77H71.5V66.6765L57 62.5L56.3 54L32.5 62.5L8.5 54Z" fill="white"/>
<path d="M32.5 62.5L8.5 54L1 30L16.75 46.25M32.5 62.5L56.3 54M32.5 62.5L16.75 46.25M67.5 50L71.5 56.3529M67.5 50L56.3 54M67.5 50L60 14M84.5 77H71.5V66.6765M84.5 77L71.5 56.3529M84.5 77L90.5 66.6765M71.5 56.3529V66.6765M71.5 66.6765L57 62.5L56.3 54M16.75 46.25L27 38.6069M60 14L67.5 1H84.5L84.9111 5.5M60 14L38.5426 30M90.5 66.6765L122.5 46M90.5 66.6765L84.9111 5.5M142.5 33V70H132.5L129 56.3529M142.5 33L129.5 41.4191M142.5 33L140 16.5M129 56.3529L122.5 46M129 56.3529L129.5 41.4191M122.5 46L129.5 41.4191M129.5 41.4191L140 16.5M129.5 41.4191L122.5 5.5M140 16.5L122.5 5.5M122.5 5.5H84.9111M27 38.6069L23 30H38.5426M27 38.6069L38.5426 30" stroke="black" stroke-width="2"/>
</svg>
