<svg width="159" height="80" viewBox="0 0 159 80" fill="none" xmlns="http://www.w3.org/2000/svg">
<path d="M2 32L10 14L28 9.5V2L38 7L50 5.63636L82 2L82.7237 7L114 5.63636L136 21.5L142.5 40L154.5 41.5682L138.5 48L129 28.5V55L118.5 70.5L114 45.5L98 55L96.5 48L54.5 77.5L53.0911 55L42 62L45.125 38.2841L38 35L15 40L2 32Z" fill="white"/>
<path d="M38 7L28 2V9.5M38 7L28 9.5M38 7L50 5.63636M38 7V35M28 9.5L10 14L2 32L15 40L38 35M54.5 77.5L87.5 40L82.7237 7M54.5 77.5L53.0911 55M54.5 77.5L96.5 48M50 5.63636L82 2L82.7237 7M50 5.63636L52.25 41.5682M38 35L45.125 38.2841M52.25 41.5682L45.125 38.2841M52.25 41.5682L53.0911 55M45.125 38.2841L42 62L53.0911 55M82.7237 7L114 5.63636M114 5.63636V38.2841M114 5.63636L136 21.5M114 45.5L98 55L96.5 48M114 45.5V38.2841M114 45.5L118.5 70.5L129 55V28.5M96.5 48L114 38.2841M129 28.5L138.5 48L154.5 41.5682L142.5 40L136 21.5M129 28.5L136 21.5" stroke="black" stroke-width="2"/>
</svg>
