<svg width="107" height="99" viewBox="0 0 107 99" fill="none" xmlns="http://www.w3.org/2000/svg">
<path d="M1 98.5V41.5H13L15.25 35.5L4 19L7.5 16H22.5625L23.5 13.5L59 2L55.5 13.5L76 19L84.3571 41.5L103.5 45L89.1857 54.5L95.5 71.5L79.25 75.6364L76 94.5L63 79.7727L40.5 85.5L18.9545 61.5L1 98.5Z" fill="white"/>
<path d="M1 41.5V98.5L18.9545 61.5M1 41.5L13 54.8671M1 41.5H13M40.5 85.5L76 19M40.5 85.5L63 79.7727M40.5 85.5L18.9545 61.5M76 19L84.3571 41.5M76 19L55.5 13.5M63 79.7727L76 94.5L79.25 75.6364M63 79.7727L79.25 75.6364M79.25 75.6364L95.5 71.5L89.1857 54.5M89.1857 54.5L103.5 45L84.3571 41.5M89.1857 54.5L84.3571 41.5M55.5 13.5H23.5M55.5 13.5L59 2L23.5 13.5M23.5 13.5L22.5625 16M13 41.5V54.8671M13 41.5L15.25 35.5M13 54.8671L18.9545 61.5M15.25 35.5L4 19L7.5 16H22.5625M15.25 35.5L22.5625 16" stroke="black" stroke-width="2"/>
</svg>
