<svg width="196" height="113" viewBox="0 0 196 113" fill="none" xmlns="http://www.w3.org/2000/svg">
<path d="M1 20.0293L47.9329 9.96948V6.31136L59.0452 2L63.6933 9.96948L77.217 14.2808L93.1663 17.0244L106.501 29.1746L116.044 33.3553L150.95 29.1746L177.358 51.5153V69.4139H192L171.736 81.0415L162.324 59.754V76.6216L167.03 81.0415L159.84 109L155.395 94.1716L149.643 108.739L142.322 74.4087L128.333 66.409L99.5722 73.8559L89.898 109L89.4476 97.6337L83.2307 106.779L84.7995 70.851L69.896 58.0476L72.3781 51.5101L67.6483 37.7973L63.7157 33.3553L45.1875 51.5153L37.2129 43.0232L47.9329 20.0293H1Z" fill="white"/>
<path d="M47.9329 9.96948L1 20.0293H47.9329M47.9329 9.96948V20.0293M47.9329 9.96948V6.31136L59.0452 2L63.6933 9.96948M47.9329 20.0293L72.3799 24.8632M47.9329 20.0293L37.2129 43.0232L45.1875 51.5153L63.7157 33.3553M72.3799 24.8632L63.7157 33.3553M72.3799 24.8632L77.217 14.2808M72.3799 24.8632L63.6933 9.96948M63.7157 33.3553L67.6483 37.7973M99.5722 73.8559L106.501 29.1746M99.5722 73.8559L128.333 66.409M99.5722 73.8559L87.0873 59.754M99.5722 73.8559L89.898 109L89.4476 97.6337M106.501 29.1746L116.044 33.3553M106.501 29.1746L93.1663 17.0244L77.217 14.2808M116.044 33.3553L128.333 66.409M116.044 33.3553L150.95 29.1746M128.333 66.409L142.322 74.4087M77.217 14.2808L63.6933 9.96948M67.6483 37.7973L72.3799 51.5153M67.6483 37.7973L74.6023 45.652M74.6023 45.652L69.896 58.0476L84.7995 70.851M74.6023 45.652L87.0873 59.754M84.7995 70.851L88.3292 69.4139M84.7995 70.851L83.2307 106.779L89.4476 97.6337M88.3292 69.4139L87.0873 59.754M88.3292 69.4139L89.4476 97.6337M150.95 79.3431L156.179 70.851M150.95 79.3431L142.322 74.4087M150.95 79.3431L155.395 94.1716M150.95 79.3431V29.1746M156.179 70.851L162.324 59.754M156.179 70.851L162.324 76.6216M142.322 74.4087L149.643 108.739L155.395 94.1716M155.395 94.1716L159.84 109L167.03 81.0415L162.324 76.6216M162.324 59.754V76.6216M162.324 59.754L177.358 51.5153M162.324 59.754L171.736 81.0415M162.324 59.754L150.95 29.1746M177.358 51.5153V69.4139M177.358 51.5153L150.95 29.1746M177.358 69.4139H192L171.736 81.0415M177.358 69.4139L171.736 81.0415" stroke="black" stroke-width="2"/>
</svg>
