<svg width="167" height="81" viewBox="0 0 167 81" fill="none" xmlns="http://www.w3.org/2000/svg">
<path d="M2 47L8.5 38L81 32L133.5 23.5L146.5 4V23.5L166 41L140.5 32L139 38L116.5 59.5L122.5 68.5H102.5L85 75.1818L75 79L5 50.5L2 47Z" fill="white"/>
<path d="M8.5 38L2 47L5 50.5M8.5 38L5.5 50.5H5M8.5 38L81 32M5 50.5L75 79L85 75.1818M102.5 68.5H122.5L116.5 59.5M102.5 68.5L96 65.5H75M102.5 68.5L85 75.1818M116.5 59.5L139 38L140.5 32M116.5 59.5L81 32M140.5 32L166 41L146.5 23.5M140.5 32L133.5 23.5M146.5 23.5V4L133.5 23.5M146.5 23.5H133.5M133.5 23.5L81 32M81 32L75 65.5M75 65.5L85 75.1818" stroke="black" stroke-width="2"/>
</svg>
