<svg width="247" height="184" viewBox="0 0 247 184" fill="none" xmlns="http://www.w3.org/2000/svg">
<path d="M156.286 102.797L180.971 106.653L245 149.839L126.971 159.864L71.4286 183L63.9843 139.814H56L2 97.3983L55.5414 90.834L49.8286 57.6921L28.2286 66.5509L48.7926 42.9845L52.9143 44.6149L56 41.8729L64.4857 51.1271L75.1571 88.1441L83.7714 87.3729L99.8025 95.0132L114.629 75.8051L136.229 91.2288L160.143 1L156.286 102.797Z" fill="white"/>
<path d="M156.286 102.797L180.971 106.653L245 149.839L126.971 159.864M156.286 102.797L79.1429 149.839M156.286 102.797L160.143 1L136.229 91.2288M156.286 102.797L136.229 91.2288M126.971 159.864L79.1429 149.839M126.971 159.864L71.4286 183M79.1429 149.839L71.4286 183M71.4286 183V149.839L85.8286 125.161M71.4286 183L55.219 55.4393L49.8286 57.6921M71.4286 183L63.9843 139.814M136.229 91.2288L114.629 75.8051M114.629 75.8051L85.8286 125.161M114.629 75.8051L99.8025 95.0132M85.8286 125.161L83.4498 116.909L99.8025 95.0132M85.8286 125.161L75.1571 88.1441M28.2286 66.5509L49.8286 57.6921M28.2286 66.5509L52.9143 44.6149M28.2286 66.5509L48.7926 42.9845L52.9143 44.6149M49.8286 57.6921L55.5414 90.834M99.8025 95.0132L83.7714 87.3729L75.1571 88.1441M63.9843 139.814H56L2 97.3983L55.5414 90.834M63.9843 139.814L55.5414 90.834M52.9143 44.6149L56 41.8729L64.4857 51.1271L75.1571 88.1441" stroke="black"/>
</svg>
