<svg width="224" height="184" viewBox="0 0 224 184" fill="none" xmlns="http://www.w3.org/2000/svg">
<path d="M145.895 71.72L120.021 181.44L85.3496 68.08L1 75.36L60.5105 40H77.5874L79.1399 37.92H63.0979L18.0769 1L95.6993 10.88L105.273 18.68L112.776 6.72L122.091 22.32L129.077 18.16L136.063 14L212.65 10.88L166.594 37.92H145.895L166.594 41.04L223 80.04L145.895 71.72Z" fill="white"/>
<path d="M120.021 181.44L145.895 71.72M120.021 181.44L85.3496 68.08M120.021 181.44L108.636 56.64M120.021 181.44L115.364 56.64M120.021 181.44L93.1119 64.2667M120.021 181.44L98.2867 61.7244M120.021 181.44L130.888 70.16M120.021 181.44L135.545 70.6441M145.895 71.72L223 80.04M145.895 71.72L135.545 70.6441M223 80.04L166.594 41.04L145.895 37.92M223 80.04L130.888 48.84M223 80.04L133.993 45.2176M145.895 37.92H166.594L212.65 10.88M145.895 37.92L133.993 45.2176M145.895 37.92L140.203 31.232M212.65 10.88L136.063 14L129.077 18.16M212.65 10.88L140.203 31.232M212.65 10.88L136.977 27.4415M122.091 22.32L112.776 6.72L105.273 18.68M122.091 22.32L126.231 28.56M122.091 22.32L129.077 18.16M97.7692 30.64V43.12M97.7692 30.64L105.273 18.68M97.7692 30.64L95.6993 16.6M97.7692 43.12L112.776 17.64M97.7692 43.12L94.0822 48.84M112.776 17.64L126.231 41.04M112.776 17.64L108.636 56.64M112.776 17.64L115.364 56.64M126.231 41.04V28.56M126.231 41.04L130.888 48.84M126.231 28.56L129.077 18.16M105.273 18.68L95.6993 10.88L18.0769 1M18.0769 1L63.0979 37.92H79.1399M18.0769 1L84.7943 30.64M18.0769 1L88.0254 26.48M79.1399 37.92L77.5874 40M79.1399 37.92L84.7943 30.64M77.5874 40H60.5105L1 75.36M77.5874 40L89.4895 46.3787M1 75.36L85.3496 68.08M1 75.36L89.4895 46.3787M1 75.36L94.0822 48.84M85.3496 68.08L93.1119 64.2667M108.636 56.64L98.2867 61.7244M108.636 56.64L94.0822 48.84M115.364 56.64L130.888 70.16M115.364 56.64L133.993 45.2176M130.888 70.16L135.545 70.6441M93.1119 64.2667L98.2867 61.7244M130.888 48.84L129.077 18.16M129.077 18.16L136.977 27.4415M94.0822 48.84L95.6993 16.6M94.0822 48.84L89.4895 46.3787M95.6993 16.6L88.0254 26.48M84.7943 30.64L88.0254 26.48M140.203 31.232L136.977 27.4415" stroke="black"/>
</svg>
