<svg width="99" height="81" viewBox="0 0 99 81" fill="none" xmlns="http://www.w3.org/2000/svg">
<path d="M49.5 29.4999H92C94.7614 29.4999 97 31.7385 97 34.4999V73.4999C97 76.2614 94.7614 78.4999 92 78.4999H7C4.23858 78.4999 2 76.2614 2 73.4999V34.4999C2 31.7385 4.23858 29.4999 7 29.4999H49.5ZM49.5 29.4999C49.5 29.4999 46 14.4999 63 14.4999C67.1667 14.1666 75.6 11 76 1" stroke="black" stroke-width="4"/>
<rect x="10" y="38" width="8" height="7.36364" fill="black"/>
<rect x="22" y="38" width="8" height="7.36364" fill="black"/>
<rect x="34" y="38" width="8" height="7.36364" fill="black"/>
<rect x="46" y="38" width="8" height="7.36364" fill="black"/>
<rect x="58" y="38" width="8" height="7.36364" fill="black"/>
<rect x="28" y="50.8181" width="8" height="7.36364" fill="black"/>
<rect x="40" y="50.8181" width="8" height="7.36364" fill="black"/>
<rect x="52" y="50.8181" width="8" height="7.36364" fill="black"/>
<rect x="64" y="50.8181" width="8" height="7.36364" fill="black"/>
<rect x="10" y="63" width="8" height="7.36364" fill="black"/>
<rect x="22" y="63" width="8" height="7.36364" fill="black"/>
<rect x="70" y="63" width="8" height="7.36364" fill="black"/>
<rect x="82" y="63" width="8" height="7.36364" fill="black"/>
<rect x="70" y="38" width="8" height="7.36364" fill="black"/>
<rect x="82" y="38" width="8" height="7.36364" fill="black"/>
<rect x="10" y="50.8181" width="14" height="7.36364" fill="black"/>
<rect x="33" y="63" width="33" height="7.36364" fill="black"/>
<rect x="76" y="50.8181" width="14" height="7.36364" fill="black"/>
</svg>
