<svg width="98" height="96" viewBox="0 0 98 96" fill="none" xmlns="http://www.w3.org/2000/svg">
<path d="M77 94H38.9257C38.6537 94 38.3934 93.8892 38.2049 93.6931L3.08582 57.1693C2.41908 56.4758 3.02015 55.333 3.9693 55.4895L32.8489 60.25M77 94L95.0388 72.061C95.3138 71.7264 95.3423 71.2529 95.1093 70.8878L65.5 24.5M77 94L64.6978 65.5M65.5 24.5H88.8163C89.7423 24.5 90.1709 23.3498 89.4706 22.7438L66.2755 2.67109C65.8504 2.30322 65.2057 2.35793 64.8487 2.79215L47 24.5M65.5 24.5H47M47 24.5L58.5 51.1417M64.6978 65.5L32.8489 60.25M64.6978 65.5L58.5 51.1417M32.8489 60.25L21.7191 38.8446C21.2942 38.0274 22.1064 37.119 22.9658 37.4501L58.5 51.1417" stroke="black" stroke-width="4"/>
</svg>
