<svg width="100" height="74" viewBox="0 0 100 74" fill="none" xmlns="http://www.w3.org/2000/svg">
<path d="M59.5 62.5H7C4.23858 62.5 2 60.2614 2 57.5V7C2 4.23858 4.23858 2 7 2H54.5C57.2614 2 59.5 4.23858 59.5 7V16M59.5 62.5V16M59.5 62.5H93C95.7614 62.5 98 60.2614 98 57.5V39.5M59.5 16H79.6349C81.1321 16 82.5505 16.671 83.5002 17.8284L88.1538 23.5M88.1538 23.5L96.8654 34.1172C97.599 35.0113 98 36.1321 98 37.2887V39.5M88.1538 23.5H76.5C73.7386 23.5 71.5 25.7386 71.5 28.5V34.5C71.5 37.2614 73.7386 39.5 76.5 39.5H98" stroke="black" stroke-width="4"/>
<circle cx="25.5" cy="61.5" r="10.5" fill="white" stroke="black" stroke-width="4"/>
<circle cx="77.5" cy="61.5" r="10.5" fill="white" stroke="black" stroke-width="4"/>
</svg>
