<svg width="32" height="32" viewBox="0 0 32 32" fill="none" xmlns="http://www.w3.org/2000/svg">
<path d="M9.40909 0C4.24432 0 0 4.23864 0 9.40909V22.5909C0 27.7557 4.23864 32 9.40909 32H22.5909C27.7557 32 32 27.7614 32 22.5909V9.40909C32 4.24432 27.7614 0 22.5909 0H9.40909ZM9.40909 2.90909H22.5909C26.1875 2.90909 29.0909 5.8125 29.0909 9.40909V22.5909C29.0909 26.1875 26.1875 29.0909 22.5909 29.0909H9.40909C5.8125 29.0909 2.90909 26.1875 2.90909 22.5909V9.40909C2.90909 5.8125 5.8125 2.90909 9.40909 2.90909ZM24.5909 6.09091C23.858 6.09091 23.2727 6.67614 23.2727 7.40909C23.2727 8.14205 23.858 8.72727 24.5909 8.72727C25.3239 8.72727 25.9091 8.14205 25.9091 7.40909C25.9091 6.67614 25.3239 6.09091 24.5909 6.09091ZM16 7.27273C11.1989 7.27273 7.27273 11.1989 7.27273 16C7.27273 20.8011 11.1989 24.7273 16 24.7273C20.8011 24.7273 24.7273 20.8011 24.7273 16C24.7273 11.1989 20.8011 7.27273 16 7.27273ZM16 10.1818C19.233 10.1818 21.8182 12.767 21.8182 16C21.8182 19.233 19.233 21.8182 16 21.8182C12.767 21.8182 10.1818 19.233 10.1818 16C10.1818 12.767 12.767 10.1818 16 10.1818Z" fill="white" fill-opacity="0.65"/>
</svg>
