<svg width="40" height="32" viewBox="0 0 40 32" fill="none" xmlns="http://www.w3.org/2000/svg">
<path d="M39.3823 3.78734C37.9335 4.43059 36.3765 4.86342 34.7413 5.06181C36.4065 4.05786 37.693 2.4768 38.2942 0.589142C36.7312 1.51494 34.9998 2.18824 33.1602 2.54894C31.6874 0.979899 29.5893 0 27.2628 0C22.8022 0 19.1832 3.61901 19.1832 8.07965C19.1832 8.71088 19.2553 9.33008 19.3936 9.91922C12.6786 9.58257 6.72703 6.36032 2.74131 1.47285C2.04396 2.66917 1.64719 4.05786 1.64719 5.54274C1.64719 8.34417 3.07195 10.815 5.24216 12.2638C3.91358 12.2217 2.66917 11.861 1.58106 11.2538C1.58106 11.2899 1.58106 11.3199 1.58106 11.356C1.58106 15.2696 4.36446 18.5339 8.06162 19.2794C7.3823 19.4657 6.67293 19.5619 5.9335 19.5619C5.41048 19.5619 4.9055 19.5138 4.41255 19.4176C5.44054 22.6218 8.42232 24.9664 11.9572 25.0265C9.19782 27.1967 5.71107 28.4832 1.92373 28.4832C1.26846 28.4832 0.631223 28.4471 0 28.375C3.57092 30.6654 7.82115 32 12.384 32C27.2448 32 35.3725 19.6881 35.3725 9.01747C35.3725 8.66279 35.3665 8.31411 35.3485 7.96543C36.9296 6.83524 38.3002 5.41048 39.3823 3.78734Z" fill="white" fill-opacity="0.65"/>
</svg>
